<?xml version="1.0" encoding="UTF-8" standalone="no"?>
<!-- Created with Inkscape (http://www.inkscape.org/) -->

<svg
   xmlns:dc="http://purl.org/dc/elements/1.1/"
   xmlns:cc="http://creativecommons.org/ns#"
   xmlns:rdf="http://www.w3.org/1999/02/22-rdf-syntax-ns#"
   xmlns:svg="http://www.w3.org/2000/svg"
   xmlns="http://www.w3.org/2000/svg"
   xmlns:sodipodi="http://sodipodi.sourceforge.net/DTD/sodipodi-0.dtd"
   xmlns:inkscape="http://www.inkscape.org/namespaces/inkscape"
   width="210mm"
   height="297mm"
   viewBox="0 0 210 297"
   version="1.1"
   id="svg4593"
   inkscape:version="0.92.5 (2060ec1f9f, 2020-04-08)"
   sodipodi:docname="sun.svg">
  <defs
     id="defs4587" />
  <sodipodi:namedview
     id="base"
     pagecolor="#ffffff"
     bordercolor="#666666"
     borderopacity="1.0"
     inkscape:pageopacity="0.0"
     inkscape:pageshadow="2"
     inkscape:zoom="0.82"
     inkscape:cx="249.39024"
     inkscape:cy="560"
     inkscape:document-units="mm"
     inkscape:current-layer="layer1"
     showgrid="false"
     inkscape:window-width="1920"
     inkscape:window-height="1017"
     inkscape:window-x="-8"
     inkscape:window-y="-8"
     inkscape:window-maximized="1" />
  <metadata
     id="metadata4590">
    <rdf:RDF>
      <cc:Work
         rdf:about="">
        <dc:format>image/svg+xml</dc:format>
        <dc:type
           rdf:resource="http://purl.org/dc/dcmitype/StillImage" />
        <dc:title></dc:title>
      </cc:Work>
    </rdf:RDF>
  </metadata>
  <g
     inkscape:label="Layer 1"
     inkscape:groupmode="layer"
     id="layer1">
    <path
       style="fill:#008000;stroke-width:0.74298811"
       d="m 457.82031,270.23633 -38.30859,50.33203 a 150,150 0 0 1 52.47461,11.14844 z"
       transform="scale(0.26458333)"
       id="path4665" />
    <path
       style="fill:#008000;stroke-width:0.74298811"
       d="m 493.73633,343.02344 a 150,150 0 0 1 39.85742,35.96875 l 18.49805,-60.41211 z"
       transform="scale(0.26458333)"
       id="path4661" />
    <path
       style="fill:#008000;stroke-width:0.74298811"
       d="m 546.89062,399.58398 a 150,150 0 0 1 16.38086,51.12891 l 46.29102,-43.12891 z"
       transform="scale(0.26458333)"
       id="path4657" />
    <path
       style="fill:#008000;stroke-width:0.74298811"
       d="m 564.50586,475.0957 a 150,150 0 0 1 -11.17774,52.47461 l 61.50391,-14.17187 z"
       transform="scale(0.26458333)"
       id="path4653" />
    <path
       style="fill:#008000;stroke-width:0.74298811"
       d="m 542.04297,549.3125 a 150,150 0 0 1 -35.95508,39.86523 l 60.39844,18.49415 z"
       transform="scale(0.26458333)"
       id="path4649" />
    <path
       style="fill:#008000;stroke-width:0.74298811"
       d="m 485.48438,602.45508 a 150,150 0 0 1 -51.12891,16.40039 l 43.12695,46.28711 z"
       transform="scale(0.26458333)"
       id="path4645" />
    <path
       style="fill:#008000;stroke-width:0.74298811"
       d="M 409.97266,620.08203 A 150,150 0 0 1 357.5,608.91602 l 14.16797,61.49414 z"
       transform="scale(0.26458333)"
       id="path4641" />
    <path
       style="fill:#008000;stroke-width:0.74298811"
       d="m 335.75391,597.62305 a 150,150 0 0 1 -39.86329,-35.95899 l -18.49609,60.40235 z"
       transform="scale(0.26458333)"
       id="path4637" />
    <path
       style="fill:#008000;stroke-width:0.74298811"
       d="M 282.60742,541.0625 A 150,150 0 0 1 266.21289,489.93555 L 219.92578,533.0625 Z"
       transform="scale(0.26458333)"
       id="path4633" />
    <path
       style="fill:#008000;stroke-width:0.74298811"
       d="m 264.98828,465.55273 a 150,150 0 0 1 11.1582,-52.47461 l -61.49023,14.16993 z"
       transform="scale(0.26458333)"
       id="path4629" />
    <path
       style="fill:#008000;stroke-width:0.74298811"
       d="M 287.44336,391.33203 A 150,150 0 0 1 323.4082,351.4707 L 263,332.97461 Z"
       transform="scale(0.26458333)"
       id="path4625" />
    <path
       style="fill:#008000;stroke-width:0.74298811"
       d="m 344.00391,338.18164 a 150,150 0 0 1 51.1289,-16.38867 l -43.1289,-46.28906 z"
       transform="scale(0.26458333)"
       id="path4621" />
    <path
       style="fill:#008000;stroke-width:0.31979966"
       id="path4617"
       sodipodi:type="arc"
       sodipodi:cx="109.73438"
       sodipodi:cy="124.43969"
       sodipodi:rx="35.057293"
       sodipodi:ry="35.057293"
       sodipodi:start="0"
       sodipodi:end="6.2795725"
       sodipodi:open="true"
       d="M 144.79168,124.43969 A 35.057293,35.057293 0 0 1 109.76605,159.49697 35.057293,35.057293 0 0 1 74.677147,124.50302 35.057293,35.057293 0 0 1 109.63939,89.382525 35.057293,35.057293 0 0 1 144.79145,124.31303" />
  </g>
</svg>
