<svg>
	<symbol id="sun" 
		viewBox="0 0 210 297"
		xmlns="http://www.w3.org/2000/svg">
	  <g>
		<path
	       d="m 457.82031,270.23633 -38.30859,50.33203 a 150,150 0 0 1 52.47461,11.14844 z"
	       transform="scale(0.26458333)"/>
	    <path
	       d="m 493.73633,343.02344 a 150,150 0 0 1 39.85742,35.96875 l 18.49805,-60.41211 z"
	       transform="scale(0.26458333)"/>
	    <path
	       d="m 546.89062,399.58398 a 150,150 0 0 1 16.38086,51.12891 l 46.29102,-43.12891 z"
	       transform="scale(0.26458333)"/>
	    <path
	       d="m 564.50586,475.0957 a 150,150 0 0 1 -11.17774,52.47461 l 61.50391,-14.17187 z"
	       transform="scale(0.26458333)"/>
	    <path
	       d="m 542.04297,549.3125 a 150,150 0 0 1 -35.95508,39.86523 l 60.39844,18.49415 z"
	       transform="scale(0.26458333)"/>
	    <path
	       d="m 485.48438,602.45508 a 150,150 0 0 1 -51.12891,16.40039 l 43.12695,46.28711 z"
	       transform="scale(0.26458333)"/>
	    <path
	       d="M 409.97266,620.08203 A 150,150 0 0 1 357.5,608.91602 l 14.16797,61.49414 z"
	       transform="scale(0.26458333)"/>
	    <path
	       d="m 335.75391,597.62305 a 150,150 0 0 1 -39.86329,-35.95899 l -18.49609,60.40235 z"
	       transform="scale(0.26458333)"/>
	    <path
	       d="M 282.60742,541.0625 A 150,150 0 0 1 266.21289,489.93555 L 219.92578,533.0625 Z"
	       transform="scale(0.26458333)"/>
	    <path
	       d="m 264.98828,465.55273 a 150,150 0 0 1 11.1582,-52.47461 l -61.49023,14.16993 z"
	       transform="scale(0.26458333)"/>
	    <path
	       d="M 287.44336,391.33203 A 150,150 0 0 1 323.4082,351.4707 L 263,332.97461 Z"
	       transform="scale(0.26458333)"/>
	    <path
	       d="m 344.00391,338.18164 a 150,150 0 0 1 51.1289,-16.38867 l -43.1289,-46.28906 z"
	       transform="scale(0.26458333)"/>
	    <path
	       d="M 144.79168,124.43969 A 35.057293,35.057293 0 0 1 109.76605,159.49697 35.057293,35.057293 0 0 1 74.677147,124.50302 35.057293,35.057293 0 0 1 109.63939,89.382525 35.057293,35.057293 0 0 1 144.79145,124.31303" />
	  </g>
	</symbol>
	<symbol id="clock" viewBox="0 0 512 512" xmlns="http://www.w3.org/2000/svg">
		<g>
			<path d="M256,0C114.844,0,0,114.844,0,256s114.844,256,256,256s256-114.844,256-256S397.156,0,256,0z M266.667,490.126v-31.46
				c0-5.896-4.771-10.667-10.667-10.667s-10.667,4.771-10.667,10.667v31.46c-120.868-5.473-217.987-102.591-223.46-223.46h31.46
				C59.229,266.667,64,261.896,64,256s-4.771-10.667-10.667-10.667h-31.46c5.473-120.868,102.591-217.987,223.46-223.46v31.46
				C245.333,59.229,250.104,64,256,64s10.667-4.771,10.667-10.667v-31.46c120.868,5.473,217.987,102.591,223.46,223.46h-31.46
				c-5.896,0-10.667,4.771-10.667,10.667s4.771,10.667,10.667,10.667h31.46C484.654,387.535,387.535,484.654,266.667,490.126z"/>
			<path d="M276.281,261.198c0.441-1.707,1.052-3.355,1.052-5.198c0-4.465-1.698-8.382-4.053-11.811l67.053-143.678
				c2.49-5.333,0.188-11.688-5.156-14.177C329.854,83.885,323.5,86.167,321,91.49l-67.005,143.583
				c-10.776,1.063-19.328,9.878-19.328,20.927c0,11.76,9.573,21.333,21.333,21.333c1.842,0,3.491-0.611,5.198-1.052l83.26,83.26
				c2.083,2.083,4.813,3.125,7.542,3.125c2.729,0,5.458-1.042,7.542-3.125c4.167-4.167,4.167-10.917,0-15.083L276.281,261.198z"/>
		</g>
	</symbol>
	<symbol id="phone" viewBox="0 0 480.56 480.56" xmlns="http://www.w3.org/2000/svg">
		<g>
			<path d="M365.354,317.9c-15.7-15.5-35.3-15.5-50.9,0c-11.9,11.8-23.8,23.6-35.5,35.6c-3.2,3.3-5.9,4-9.8,1.8
				c-7.7-4.2-15.9-7.6-23.3-12.2c-34.5-21.7-63.4-49.6-89-81c-12.7-15.6-24-32.3-31.9-51.1c-1.6-3.8-1.3-6.3,1.8-9.4
				c11.9-11.5,23.5-23.3,35.2-35.1c16.3-16.4,16.3-35.6-0.1-52.1c-9.3-9.4-18.6-18.6-27.9-28c-9.6-9.6-19.1-19.3-28.8-28.8
				c-15.7-15.3-35.3-15.3-50.9,0.1c-12,11.8-23.5,23.9-35.7,35.5c-11.3,10.7-17,23.8-18.2,39.1c-1.9,24.9,4.2,48.4,12.8,71.3
				c17.6,47.4,44.4,89.5,76.9,128.1c43.9,52.2,96.3,93.5,157.6,123.3c27.6,13.4,56.2,23.7,87.3,25.4c21.4,1.2,40-4.2,54.9-20.9
				c10.2-11.4,21.7-21.8,32.5-32.7c16-16.2,16.1-35.8,0.2-51.8C403.554,355.9,384.454,336.9,365.354,317.9z"/>
			<path d="M346.254,238.2l36.9-6.3c-5.8-33.9-21.8-64.6-46.1-89c-25.7-25.7-58.2-41.9-94-46.9l-5.2,37.1
				c27.7,3.9,52.9,16.4,72.8,36.3C329.454,188.2,341.754,212,346.254,238.2z"/>
			<path d="M403.954,77.8c-42.6-42.6-96.5-69.5-156-77.8l-5.2,37.1c51.4,7.2,98,30.5,134.8,67.2c34.9,34.9,57.8,79,66.1,127.5
				l36.9-6.3C470.854,169.3,444.354,118.3,403.954,77.8z"/>
		</g>
	</symbol>
	<symbol id="mail" viewBox="-17 -101 560 560" xmlns="http://www.w3.org/2000/svg">
		<path d="m462.5-5.582031h-400c-34.511719.011719-62.484375 27.988281-62.5 62.5v233.371093c.015625 34.511719 27.988281 62.492188 62.5 62.5h400c34.511719-.007812 62.484375-27.988281 62.5-62.5v-233.371093c-.015625-34.511719-27.988281-62.488281-62.5-62.5zm-400 25h400c18.003906.046875 33.453125 12.824219 36.875 30.496093l-236.875 132.003907-236.875-132.003907c3.421875-17.671874 18.871094-30.449218 36.875-30.496093zm400 308.25h-400c-20.683594-.0625-37.441406-16.816407-37.5-37.5v-212l231.375 128.996093c1.875 1.03125 3.980469 1.59375 6.125 1.628907 2.152344.023437 4.265625-.539063 6.125-1.628907l231.375-128.996093v212c-.015625 20.703125-16.796875 37.480469-37.5 37.5zm0 0"/>
	</symbol>
	<symbol id="pin" viewBox="0 0 512 512" xmlns="http://www.w3.org/2000/svg">
		<path d="M256,0C161.896,0,85.333,76.563,85.333,170.667c0,28.25,7.063,56.26,20.49,81.104L246.667,506.5
			c1.875,3.396,5.448,5.5,9.333,5.5s7.458-2.104,9.333-5.5l140.896-254.813c13.375-24.76,20.438-52.771,20.438-81.021
			C426.667,76.563,350.104,0,256,0z M256,256c-47.052,0-85.333-38.281-85.333-85.333c0-47.052,38.281-85.333,85.333-85.333
			s85.333,38.281,85.333,85.333C341.333,217.719,303.052,256,256,256z"/>
	</symbol>
	<symbol id="instagram" viewBox="0 0 512 512" xmlns="http://www.w3.org/2000/svg">
		<path d="m256 120.5c-74.714844 0-135.5 60.785156-135.5 135.5s60.785156 135.5 135.5 135.5 135.5-60.785156 135.5-135.5-60.785156-135.5-135.5-135.5zm0 241c-58.171875 0-105.5-47.328125-105.5-105.5s47.328125-105.5 105.5-105.5c58.175781 0 105.5 47.328125 105.5 105.5s-47.324219 105.5-105.5 105.5zm0 0"/><path d="m460.410156 51.589844c-33.265625-33.269532-77.332031-51.589844-124.074218-51.589844h-160.671876c-46.742187 0-90.808593 18.320312-124.074218 51.589844-33.269532 33.265625-51.589844 77.332031-51.589844 124.074218v160.667969c0 46.746094 18.320312 90.8125 51.589844 124.078125 33.265625 33.269532 77.332031 51.589844 124.074218 51.589844h160.671876c46.742187 0 90.808593-18.320312 124.074218-51.589844 33.269532-33.265625 51.589844-77.332031 51.589844-124.078125v-160.667969c0-46.742187-18.320312-90.808593-51.589844-124.074218zm21.589844 284.742187c0 80.320313-65.347656 145.667969-145.664062 145.667969h-160.671876c-80.316406 0-145.664062-65.347656-145.664062-145.667969v-160.667969c0-80.316406 65.347656-145.664062 145.664062-145.664062h160.671876c80.316406 0 145.664062 65.347656 145.664062 145.664062zm0 0"/><path d="m395.511719 101.488281c-3.953125 0-7.820313 1.609375-10.613281 4.402344-2.789063 2.789063-4.386719 6.660156-4.386719 10.597656 0 3.949219 1.597656 7.820313 4.386719 10.609375 2.792968 2.792969 6.660156 4.390625 10.613281 4.390625 3.9375 0 7.808593-1.597656 10.597656-4.390625 2.789063-2.789062 4.402344-6.660156 4.402344-10.609375 0-3.9375-1.613281-7.808593-4.402344-10.597656s-6.660156-4.402344-10.597656-4.402344zm0 0"/>
	</symbol>
	<symbol id="facebook" viewBox="0 0 155.139 155.139" xmlns="http://www.w3.org/2000/svg">
		<g>
			<path id="f_1_" d="M89.584,155.139V84.378h23.742l3.562-27.585H89.584V39.184
				c0-7.984,2.208-13.425,13.67-13.425l14.595-0.006V1.08C115.325,0.752,106.661,0,96.577,0C75.52,0,61.104,12.853,61.104,36.452
				v20.341H37.29v27.585h23.814v70.761H89.584z"/>
		</g>
	</symbol>
	<symbol id="om" viewBox="0 0 320.699 320.699" xmlns="http://www.w3.org/2000/svg">
		<g>
			<path d="M168.475,87.383c0,0,17.145,13.715,42.625,13.715c25.896,0,54.882-13.015,75.648-33.965
				c0.748-0.753,0.937-1.896,0.474-2.852c-4.143-8.531-16.079-21.91-24.098-27.012c-1.113-0.707-2.584-0.429-3.361,0.637
				c-13.501,18.509-33.991,29.124-56.217,29.125c-25.089,0.002-48.245-12.974-61.943-34.709c-0.62-0.983-1.835-1.407-2.931-1.03
				c-1.098,0.38-1.79,1.465-1.671,2.619C139.14,54.694,151.153,74.755,168.475,87.383z"/>
			<path d="M276.548,115.241c-9.87-5.427-19.316-8.178-28.077-8.178c-25.498,0-41.905,22.23-57.773,43.729
				c-14.234,19.284-27.678,37.499-46.124,37.505c-0.003,0-0.006,0-0.009,0c-7.024,0-14.423-2.579-22.529-7.869
				c28.166-17.16,41.189-41.272,34.924-65.084c-6.786-25.794-33.893-43.808-65.918-43.808c-10.389,0-21.004,1.86-31.551,5.529
				c-0.804,0.28-1.41,0.95-1.609,1.777l-12.201,50.773c-0.232,0.965,0.129,1.976,0.92,2.576c0.791,0.6,1.862,0.676,2.728,0.191
				c23.924-13.331,41.342-16.129,51.741-16.129c18.756,0,27.299,8.477,27.3,16.354c0.001,12.199-18.418,24.539-53.624,24.938v-1.821
				h-5.812v3.129c-0.15,0.326-0.237,0.681-0.237,1.046c0,1.17,3.714,14.076,6.802,23.26c7.331,21.8,10.773,23.626,13.424,23.626
				c0.319,0,0.637-0.042,0.946-0.125c5.678-1.533,11.715-2.344,17.46-2.344c10.19,0,34.481,2.745,39.953,28.175
				c2.511,11.668,0.413,21.758-6.233,29.986c-12.435,15.396-37.548,20.858-55.275,20.858c-39.264,0.001-64.961-25.635-80.871-80.678
				c-0.354-1.225-1.579-1.989-2.831-1.768c-1.257,0.22-2.147,1.351-2.065,2.624c2.376,36.951,14.176,66.994,34.123,86.881
				c17.008,16.957,39.703,26.296,63.904,26.296c31.326,0,59.469-15.41,71.698-39.258c11.041-21.53,7.87-47.322-8.845-73.169
				c4.538,0.862,8.86,1.298,12.907,1.298c26.274,0,39.318-17.613,53.127-36.26c7.582-10.238,15.422-20.824,25.882-29.057
				c2.916-2.296,5.627-3.46,8.058-3.46c10.442,0,18.323,23.439,18.332,54.519c0.01,37.919-11.286,76.31-32.896,76.322
				c-0.003,0-0.006,0-0.01,0c-13.319,0-30.054-14.458-48.397-41.813c-0.575-0.859-1.617-1.275-2.628-1.047
				c-1.008,0.229-1.772,1.053-1.922,2.076c-3.035,20.688,2.17,40.594,14.282,54.614c10.472,12.122,24.923,18.8,40.691,18.801
				c0.002,0,0.005,0,0.007,0c9.802,0,19.66-2.57,29.299-7.641c26.21-13.785,42.714-46.531,43.073-85.458
				C321.07,166.272,303.742,130.191,276.548,115.241z"/>
			<circle cx="202.014" cy="29.398" r="25.391"/>
		</g>
	</symbol>
</svg>
